<svg width="32" height="32" viewBox="0 0 32 32" fill="none" xmlns="http://www.w3.org/2000/svg">
<path d="M27.0836 13.9752C27.4225 13.9752 27.7026 14.0335 27.9239 14.1503C28.1452 14.2643 28.319 14.4116 28.445 14.5924C28.5711 14.7731 28.6609 14.9608 28.7141 15.1554H28.7727L28.9535 14.0585H31L29.9242 20.4894C29.8373 21.0343 29.6259 21.4932 29.2897 21.8657C28.9536 22.2382 28.5234 22.5204 27.9996 22.7122C27.4757 22.904 26.8915 23 26.2472 23C25.631 23 25.1184 22.9151 24.7095 22.7455C24.3005 22.5759 23.9949 22.3439 23.7932 22.0492C23.5915 21.7545 23.4948 21.4207 23.5032 21.0481L25.4699 20.9397C25.4867 21.0732 25.5359 21.1887 25.6171 21.286C25.6984 21.3832 25.8146 21.4569 25.9657 21.5069C26.117 21.5597 26.3048 21.5861 26.529 21.5861C26.8735 21.5861 27.1732 21.5027 27.4281 21.3359C27.683 21.1691 27.84 20.8814 27.8989 20.4728L28.0879 19.3467H28.0164C27.9043 19.5441 27.7531 19.7207 27.5627 19.8764C27.3722 20.0321 27.1466 20.1545 26.8861 20.2434C26.6256 20.3324 26.337 20.3767 26.0205 20.3767C25.5471 20.3767 25.1337 20.2683 24.7807 20.0515C24.4278 19.8318 24.173 19.4925 24.0161 19.0337C23.8592 18.5722 23.8409 17.9787 23.9613 17.2531C24.0874 16.5052 24.3116 15.8893 24.6338 15.4055C24.9559 14.919 25.3313 14.5591 25.7599 14.3256C26.1914 14.092 26.6326 13.9752 27.0836 13.9752ZM8.04361 9C11.0874 9 13.6802 10.9161 14.6643 13.5992L12.4896 18.1791H12.4181L11.5398 11.9232H9.21186L10.6869 20.4643H13.4554C12.1633 22.002 10.2188 22.9809 8.04361 22.9809C4.15353 22.9809 1 19.8512 1 15.9904C1 12.1297 4.15353 9 8.04361 9ZM20.5587 13.9752C21.0181 13.9752 21.4256 14.0462 21.7814 14.1879C22.1372 14.3297 22.4315 14.5409 22.6641 14.8217C22.8965 15.0997 23.0546 15.4418 23.1387 15.8476C23.2227 16.2535 23.22 16.7192 23.1304 17.2446L23.0506 17.7536H18.7529L18.7392 17.8287C18.6944 18.0984 18.7068 18.3291 18.7769 18.5209C18.8469 18.7128 18.9675 18.8601 19.1384 18.963C19.3093 19.0631 19.5293 19.1132 19.7982 19.1132C19.9774 19.1132 20.1454 19.0894 20.3022 19.0422C20.4591 18.9922 20.5994 18.9186 20.7227 18.8213C20.8487 18.7212 20.951 18.6002 21.0294 18.4584L22.9034 18.5125C22.7522 18.9323 22.5183 19.298 22.2018 19.6094C21.8853 19.918 21.4985 20.1584 21.0418 20.3308C20.588 20.5004 20.0782 20.5853 19.5123 20.5853C18.8372 20.5853 18.2769 20.4532 17.8315 20.1891C17.3889 19.9222 17.0778 19.5427 16.8985 19.0507C16.7192 18.5558 16.687 17.9676 16.8019 17.2864C16.914 16.6247 17.1424 16.0465 17.487 15.5516C17.8344 15.054 18.2714 14.6674 18.798 14.3922C19.3247 14.1142 19.9116 13.9752 20.5587 13.9752ZM13.4559 20.4643H13.4554C13.4557 20.4639 13.4561 20.4634 13.4565 20.463L13.4559 20.4643ZM27.5247 15.5683C27.2698 15.5683 27.0429 15.6376 26.844 15.7766C26.6479 15.9156 26.4827 16.1118 26.3482 16.3648C26.2165 16.615 26.1241 16.9111 26.0708 17.2531C26.0148 17.5951 26.0106 17.8885 26.0582 18.1332C26.1086 18.3778 26.2096 18.5653 26.3608 18.696C26.5149 18.8266 26.7179 18.892 26.97 18.892C27.2193 18.892 27.4449 18.8266 27.6466 18.696C27.8482 18.5653 28.0178 18.3778 28.155 18.1332C28.2923 17.8885 28.389 17.5951 28.445 17.2531C28.5011 16.9056 28.5011 16.6066 28.445 16.3563C28.3918 16.1034 28.2882 15.9088 28.1341 15.7725C27.9801 15.6363 27.7768 15.5683 27.5247 15.5683ZM14.8899 17.6367C15.0184 17.1088 15.0872 16.5576 15.0872 15.9904C15.0872 15.1505 14.9379 14.3452 14.6643 13.5992L15.4603 11.9232H17.7883L14.8899 17.6367ZM20.3697 15.4473C20.1427 15.4473 19.9297 15.5 19.7308 15.6057C19.5347 15.7086 19.3681 15.8478 19.2308 16.0229C19.1033 16.1858 19.0172 16.3678 18.9719 16.5691H21.3318C21.3654 16.3522 21.3474 16.1589 21.2773 15.9894C21.2073 15.8198 21.0938 15.6877 20.937 15.5931C20.7829 15.4958 20.5937 15.4473 20.3697 15.4473Z" fill="white"/>
</svg>
